<mxfile host="Electron" modified="2024-01-15T20:35:07.288Z" agent="Mozilla/5.0 (Windows NT 10.0; Win64; x64) AppleWebKit/537.36 (KHTML, like Gecko) draw.io/22.0.2 Chrome/114.0.5735.289 Electron/25.8.4 Safari/537.36" etag="31vZNKUDCyKIPiu-MSYn" version="22.0.2" type="device">
  <diagram name="第 1 页" id="mHxBCF7MGJ3_nBYpgqUW">
    <mxGraphModel dx="1418" dy="828" grid="1" gridSize="10" guides="1" tooltips="1" connect="1" arrows="1" fold="1" page="1" pageScale="1" pageWidth="827" pageHeight="1169" math="0" shadow="0">
      <root>
        <mxCell id="0" />
        <mxCell id="1" parent="0" />
        <mxCell id="QGZTlNN-G8IxI2P4ZlFW-12" style="edgeStyle=none;shape=connector;rounded=0;orthogonalLoop=1;jettySize=auto;html=1;exitX=0.5;exitY=1;exitDx=0;exitDy=0;entryX=0.5;entryY=0;entryDx=0;entryDy=0;labelBackgroundColor=default;strokeColor=default;align=center;verticalAlign=middle;fontFamily=Helvetica;fontSize=11;fontColor=default;endArrow=none;endFill=0;" parent="1" source="QGZTlNN-G8IxI2P4ZlFW-2" target="QGZTlNN-G8IxI2P4ZlFW-4" edge="1">
          <mxGeometry relative="1" as="geometry" />
        </mxCell>
        <mxCell id="QGZTlNN-G8IxI2P4ZlFW-13" style="edgeStyle=none;shape=connector;rounded=0;orthogonalLoop=1;jettySize=auto;html=1;exitX=0.5;exitY=1;exitDx=0;exitDy=0;entryX=0.5;entryY=0;entryDx=0;entryDy=0;labelBackgroundColor=default;strokeColor=default;align=center;verticalAlign=middle;fontFamily=Helvetica;fontSize=11;fontColor=default;endArrow=none;endFill=0;" parent="1" source="QGZTlNN-G8IxI2P4ZlFW-2" target="QGZTlNN-G8IxI2P4ZlFW-5" edge="1">
          <mxGeometry relative="1" as="geometry" />
        </mxCell>
        <mxCell id="QGZTlNN-G8IxI2P4ZlFW-2" value="&lt;font color=&quot;#ffffff&quot;&gt;8&lt;/font&gt;" style="ellipse;whiteSpace=wrap;html=1;aspect=fixed;fillColor=#000000;strokeWidth=0;strokeColor=none;" parent="1" vertex="1">
          <mxGeometry x="240" y="40" width="40" height="40" as="geometry" />
        </mxCell>
        <mxCell id="YEblvkoXeITnSgKGQzJN-3" style="rounded=0;orthogonalLoop=1;jettySize=auto;html=1;exitX=0.5;exitY=1;exitDx=0;exitDy=0;entryX=0.5;entryY=0;entryDx=0;entryDy=0;endArrow=none;endFill=0;" parent="1" source="QGZTlNN-G8IxI2P4ZlFW-4" target="YEblvkoXeITnSgKGQzJN-1" edge="1">
          <mxGeometry relative="1" as="geometry" />
        </mxCell>
        <mxCell id="QGZTlNN-G8IxI2P4ZlFW-4" value="&lt;font color=&quot;#ffffff&quot;&gt;5&lt;/font&gt;" style="ellipse;whiteSpace=wrap;html=1;aspect=fixed;fillColor=#FF0000;strokeWidth=0;strokeColor=none;" parent="1" vertex="1">
          <mxGeometry x="200" y="120" width="40" height="40" as="geometry" />
        </mxCell>
        <mxCell id="QGZTlNN-G8IxI2P4ZlFW-5" value="&lt;font color=&quot;#ffffff&quot;&gt;9&lt;/font&gt;" style="ellipse;whiteSpace=wrap;html=1;aspect=fixed;fillColor=#FF0000;strokeWidth=0;strokeColor=none;" parent="1" vertex="1">
          <mxGeometry x="280" y="120" width="40" height="40" as="geometry" />
        </mxCell>
        <mxCell id="YEblvkoXeITnSgKGQzJN-1" value="&lt;font color=&quot;#ffffff&quot;&gt;3&lt;/font&gt;" style="ellipse;whiteSpace=wrap;html=1;aspect=fixed;fillColor=#FF0000;strokeWidth=0;strokeColor=none;" parent="1" vertex="1">
          <mxGeometry x="160" y="200" width="40" height="40" as="geometry" />
        </mxCell>
        <mxCell id="wdm1FBM9rA3MHSLXgTm3-1" value="x" style="text;html=1;align=center;verticalAlign=middle;resizable=0;points=[];autosize=1;strokeColor=none;fillColor=none;" parent="1" vertex="1">
          <mxGeometry x="130" y="205" width="30" height="30" as="geometry" />
        </mxCell>
        <mxCell id="wdm1FBM9rA3MHSLXgTm3-2" value="xp, xppl" style="text;html=1;align=center;verticalAlign=middle;resizable=0;points=[];autosize=1;strokeColor=none;fillColor=none;" parent="1" vertex="1">
          <mxGeometry x="140" y="125" width="60" height="30" as="geometry" />
        </mxCell>
        <mxCell id="wdm1FBM9rA3MHSLXgTm3-3" value="xpp" style="text;html=1;align=center;verticalAlign=middle;resizable=0;points=[];autosize=1;strokeColor=none;fillColor=none;" parent="1" vertex="1">
          <mxGeometry x="200" y="45" width="40" height="30" as="geometry" />
        </mxCell>
        <mxCell id="wdm1FBM9rA3MHSLXgTm3-5" value="xppr" style="text;html=1;align=center;verticalAlign=middle;resizable=0;points=[];autosize=1;strokeColor=none;fillColor=none;" parent="1" vertex="1">
          <mxGeometry x="315" y="125" width="50" height="30" as="geometry" />
        </mxCell>
        <mxCell id="IrElu2qwwcB3OQhlzzyI-1" style="edgeStyle=none;shape=connector;rounded=0;orthogonalLoop=1;jettySize=auto;html=1;exitX=0.5;exitY=1;exitDx=0;exitDy=0;entryX=0.5;entryY=0;entryDx=0;entryDy=0;labelBackgroundColor=default;strokeColor=default;align=center;verticalAlign=middle;fontFamily=Helvetica;fontSize=11;fontColor=default;endArrow=none;endFill=0;" parent="1" source="IrElu2qwwcB3OQhlzzyI-3" target="IrElu2qwwcB3OQhlzzyI-5" edge="1">
          <mxGeometry relative="1" as="geometry" />
        </mxCell>
        <mxCell id="IrElu2qwwcB3OQhlzzyI-2" style="edgeStyle=none;shape=connector;rounded=0;orthogonalLoop=1;jettySize=auto;html=1;exitX=0.5;exitY=1;exitDx=0;exitDy=0;entryX=0.5;entryY=0;entryDx=0;entryDy=0;labelBackgroundColor=default;strokeColor=default;align=center;verticalAlign=middle;fontFamily=Helvetica;fontSize=11;fontColor=default;endArrow=none;endFill=0;" parent="1" source="IrElu2qwwcB3OQhlzzyI-3" target="IrElu2qwwcB3OQhlzzyI-6" edge="1">
          <mxGeometry relative="1" as="geometry" />
        </mxCell>
        <mxCell id="IrElu2qwwcB3OQhlzzyI-3" value="&lt;font color=&quot;#ffffff&quot;&gt;8&lt;/font&gt;" style="ellipse;whiteSpace=wrap;html=1;aspect=fixed;fillColor=#FF0000;strokeWidth=0;strokeColor=none;" parent="1" vertex="1">
          <mxGeometry x="600" y="40" width="40" height="40" as="geometry" />
        </mxCell>
        <mxCell id="IrElu2qwwcB3OQhlzzyI-4" style="rounded=0;orthogonalLoop=1;jettySize=auto;html=1;exitX=0.5;exitY=1;exitDx=0;exitDy=0;entryX=0.5;entryY=0;entryDx=0;entryDy=0;endArrow=none;endFill=0;" parent="1" source="IrElu2qwwcB3OQhlzzyI-5" target="IrElu2qwwcB3OQhlzzyI-7" edge="1">
          <mxGeometry relative="1" as="geometry" />
        </mxCell>
        <mxCell id="IrElu2qwwcB3OQhlzzyI-5" value="&lt;font color=&quot;#ffffff&quot;&gt;5&lt;/font&gt;" style="ellipse;whiteSpace=wrap;html=1;aspect=fixed;fillColor=#000000;strokeWidth=0;strokeColor=none;" parent="1" vertex="1">
          <mxGeometry x="560" y="120" width="40" height="40" as="geometry" />
        </mxCell>
        <mxCell id="IrElu2qwwcB3OQhlzzyI-6" value="&lt;font color=&quot;#ffffff&quot;&gt;9&lt;/font&gt;" style="ellipse;whiteSpace=wrap;html=1;aspect=fixed;fillColor=#000000;strokeWidth=0;strokeColor=none;" parent="1" vertex="1">
          <mxGeometry x="640" y="120" width="40" height="40" as="geometry" />
        </mxCell>
        <mxCell id="IrElu2qwwcB3OQhlzzyI-7" value="&lt;font color=&quot;#ffffff&quot;&gt;3&lt;/font&gt;" style="ellipse;whiteSpace=wrap;html=1;aspect=fixed;fillColor=#FF0000;strokeWidth=0;strokeColor=none;" parent="1" vertex="1">
          <mxGeometry x="520" y="200" width="40" height="40" as="geometry" />
        </mxCell>
        <mxCell id="IrElu2qwwcB3OQhlzzyI-8" value="x" style="text;html=1;align=center;verticalAlign=middle;resizable=0;points=[];autosize=1;strokeColor=none;fillColor=none;" parent="1" vertex="1">
          <mxGeometry x="490" y="205" width="30" height="30" as="geometry" />
        </mxCell>
        <mxCell id="IrElu2qwwcB3OQhlzzyI-9" value="xp, xppl" style="text;html=1;align=center;verticalAlign=middle;resizable=0;points=[];autosize=1;strokeColor=none;fillColor=none;" parent="1" vertex="1">
          <mxGeometry x="500" y="125" width="60" height="30" as="geometry" />
        </mxCell>
        <mxCell id="IrElu2qwwcB3OQhlzzyI-10" value="xpp" style="text;html=1;align=center;verticalAlign=middle;resizable=0;points=[];autosize=1;strokeColor=none;fillColor=none;" parent="1" vertex="1">
          <mxGeometry x="560" y="45" width="40" height="30" as="geometry" />
        </mxCell>
        <mxCell id="IrElu2qwwcB3OQhlzzyI-11" value="xppr" style="text;html=1;align=center;verticalAlign=middle;resizable=0;points=[];autosize=1;strokeColor=none;fillColor=none;" parent="1" vertex="1">
          <mxGeometry x="675" y="125" width="50" height="30" as="geometry" />
        </mxCell>
        <mxCell id="IrElu2qwwcB3OQhlzzyI-14" value="调整后" style="shape=singleArrow;whiteSpace=wrap;html=1;arrowWidth=0.4;arrowSize=0.4;" parent="1" vertex="1">
          <mxGeometry x="390" y="110" width="80" height="60" as="geometry" />
        </mxCell>
        <mxCell id="_Qq6Ds8lGITZYVWs67cJ-1" style="edgeStyle=none;shape=connector;rounded=0;orthogonalLoop=1;jettySize=auto;html=1;exitX=0.5;exitY=1;exitDx=0;exitDy=0;entryX=0.5;entryY=0;entryDx=0;entryDy=0;labelBackgroundColor=default;strokeColor=default;align=center;verticalAlign=middle;fontFamily=Helvetica;fontSize=11;fontColor=default;endArrow=none;endFill=0;" parent="1" source="_Qq6Ds8lGITZYVWs67cJ-3" target="_Qq6Ds8lGITZYVWs67cJ-5" edge="1">
          <mxGeometry relative="1" as="geometry" />
        </mxCell>
        <mxCell id="_Qq6Ds8lGITZYVWs67cJ-2" style="edgeStyle=none;shape=connector;rounded=0;orthogonalLoop=1;jettySize=auto;html=1;exitX=0.5;exitY=1;exitDx=0;exitDy=0;entryX=0.5;entryY=0;entryDx=0;entryDy=0;labelBackgroundColor=default;strokeColor=default;align=center;verticalAlign=middle;fontFamily=Helvetica;fontSize=11;fontColor=default;endArrow=none;endFill=0;" parent="1" source="_Qq6Ds8lGITZYVWs67cJ-3" target="_Qq6Ds8lGITZYVWs67cJ-6" edge="1">
          <mxGeometry relative="1" as="geometry" />
        </mxCell>
        <mxCell id="_Qq6Ds8lGITZYVWs67cJ-3" value="&lt;font color=&quot;#ffffff&quot;&gt;8&lt;/font&gt;" style="ellipse;whiteSpace=wrap;html=1;aspect=fixed;fillColor=#000000;strokeWidth=0;strokeColor=none;" parent="1" vertex="1">
          <mxGeometry x="240" y="280" width="40" height="40" as="geometry" />
        </mxCell>
        <mxCell id="_Qq6Ds8lGITZYVWs67cJ-4" style="rounded=0;orthogonalLoop=1;jettySize=auto;html=1;exitX=0.5;exitY=1;exitDx=0;exitDy=0;entryX=0.5;entryY=0;entryDx=0;entryDy=0;endArrow=none;endFill=0;" parent="1" source="_Qq6Ds8lGITZYVWs67cJ-5" target="_Qq6Ds8lGITZYVWs67cJ-7" edge="1">
          <mxGeometry relative="1" as="geometry" />
        </mxCell>
        <mxCell id="_Qq6Ds8lGITZYVWs67cJ-5" value="&lt;font color=&quot;#ffffff&quot;&gt;5&lt;/font&gt;" style="ellipse;whiteSpace=wrap;html=1;aspect=fixed;fillColor=#FF0000;strokeWidth=0;strokeColor=none;" parent="1" vertex="1">
          <mxGeometry x="200" y="360" width="40" height="40" as="geometry" />
        </mxCell>
        <mxCell id="_Qq6Ds8lGITZYVWs67cJ-6" value="&lt;font color=&quot;#ffffff&quot;&gt;9&lt;/font&gt;" style="ellipse;whiteSpace=wrap;html=1;aspect=fixed;fillColor=#FF0000;strokeWidth=0;strokeColor=none;" parent="1" vertex="1">
          <mxGeometry x="280" y="360" width="40" height="40" as="geometry" />
        </mxCell>
        <mxCell id="_Qq6Ds8lGITZYVWs67cJ-7" value="&lt;font color=&quot;#ffffff&quot;&gt;6&lt;/font&gt;" style="ellipse;whiteSpace=wrap;html=1;aspect=fixed;fillColor=#FF0000;strokeWidth=0;strokeColor=none;" parent="1" vertex="1">
          <mxGeometry x="239.5" y="440" width="40" height="40" as="geometry" />
        </mxCell>
        <mxCell id="_Qq6Ds8lGITZYVWs67cJ-8" value="x" style="text;html=1;align=center;verticalAlign=middle;resizable=0;points=[];autosize=1;strokeColor=none;fillColor=none;" parent="1" vertex="1">
          <mxGeometry x="209.5" y="445" width="30" height="30" as="geometry" />
        </mxCell>
        <mxCell id="_Qq6Ds8lGITZYVWs67cJ-9" value="xp, xppl" style="text;html=1;align=center;verticalAlign=middle;resizable=0;points=[];autosize=1;strokeColor=none;fillColor=none;" parent="1" vertex="1">
          <mxGeometry x="140" y="365" width="60" height="30" as="geometry" />
        </mxCell>
        <mxCell id="_Qq6Ds8lGITZYVWs67cJ-10" value="xpp" style="text;html=1;align=center;verticalAlign=middle;resizable=0;points=[];autosize=1;strokeColor=none;fillColor=none;" parent="1" vertex="1">
          <mxGeometry x="200" y="285" width="40" height="30" as="geometry" />
        </mxCell>
        <mxCell id="_Qq6Ds8lGITZYVWs67cJ-11" value="xppr" style="text;html=1;align=center;verticalAlign=middle;resizable=0;points=[];autosize=1;strokeColor=none;fillColor=none;" parent="1" vertex="1">
          <mxGeometry x="315" y="365" width="50" height="30" as="geometry" />
        </mxCell>
        <mxCell id="_Qq6Ds8lGITZYVWs67cJ-12" style="edgeStyle=none;shape=connector;rounded=0;orthogonalLoop=1;jettySize=auto;html=1;exitX=0.5;exitY=1;exitDx=0;exitDy=0;entryX=0.5;entryY=0;entryDx=0;entryDy=0;labelBackgroundColor=default;strokeColor=default;align=center;verticalAlign=middle;fontFamily=Helvetica;fontSize=11;fontColor=default;endArrow=none;endFill=0;" parent="1" source="_Qq6Ds8lGITZYVWs67cJ-14" target="_Qq6Ds8lGITZYVWs67cJ-16" edge="1">
          <mxGeometry relative="1" as="geometry" />
        </mxCell>
        <mxCell id="_Qq6Ds8lGITZYVWs67cJ-13" style="edgeStyle=none;shape=connector;rounded=0;orthogonalLoop=1;jettySize=auto;html=1;exitX=0.5;exitY=1;exitDx=0;exitDy=0;entryX=0.5;entryY=0;entryDx=0;entryDy=0;labelBackgroundColor=default;strokeColor=default;align=center;verticalAlign=middle;fontFamily=Helvetica;fontSize=11;fontColor=default;endArrow=none;endFill=0;" parent="1" source="_Qq6Ds8lGITZYVWs67cJ-14" target="_Qq6Ds8lGITZYVWs67cJ-17" edge="1">
          <mxGeometry relative="1" as="geometry" />
        </mxCell>
        <mxCell id="_Qq6Ds8lGITZYVWs67cJ-14" value="&lt;font color=&quot;#ffffff&quot;&gt;8&lt;/font&gt;" style="ellipse;whiteSpace=wrap;html=1;aspect=fixed;fillColor=#FF0000;strokeWidth=0;strokeColor=none;" parent="1" vertex="1">
          <mxGeometry x="600" y="280" width="40" height="40" as="geometry" />
        </mxCell>
        <mxCell id="_Qq6Ds8lGITZYVWs67cJ-15" style="rounded=0;orthogonalLoop=1;jettySize=auto;html=1;exitX=0.5;exitY=1;exitDx=0;exitDy=0;entryX=0.5;entryY=0;entryDx=0;entryDy=0;endArrow=none;endFill=0;" parent="1" source="_Qq6Ds8lGITZYVWs67cJ-16" target="_Qq6Ds8lGITZYVWs67cJ-18" edge="1">
          <mxGeometry relative="1" as="geometry" />
        </mxCell>
        <mxCell id="_Qq6Ds8lGITZYVWs67cJ-16" value="&lt;font color=&quot;#ffffff&quot;&gt;5&lt;/font&gt;" style="ellipse;whiteSpace=wrap;html=1;aspect=fixed;fillColor=#000000;strokeWidth=0;strokeColor=none;" parent="1" vertex="1">
          <mxGeometry x="560" y="360" width="40" height="40" as="geometry" />
        </mxCell>
        <mxCell id="_Qq6Ds8lGITZYVWs67cJ-17" value="&lt;font color=&quot;#ffffff&quot;&gt;9&lt;/font&gt;" style="ellipse;whiteSpace=wrap;html=1;aspect=fixed;fillColor=#000000;strokeWidth=0;strokeColor=none;" parent="1" vertex="1">
          <mxGeometry x="640" y="360" width="40" height="40" as="geometry" />
        </mxCell>
        <mxCell id="_Qq6Ds8lGITZYVWs67cJ-18" value="&lt;font color=&quot;#ffffff&quot;&gt;6&lt;/font&gt;" style="ellipse;whiteSpace=wrap;html=1;aspect=fixed;fillColor=#FF0000;strokeWidth=0;strokeColor=none;" parent="1" vertex="1">
          <mxGeometry x="599.5" y="440" width="40" height="40" as="geometry" />
        </mxCell>
        <mxCell id="_Qq6Ds8lGITZYVWs67cJ-19" value="x" style="text;html=1;align=center;verticalAlign=middle;resizable=0;points=[];autosize=1;strokeColor=none;fillColor=none;" parent="1" vertex="1">
          <mxGeometry x="569.5" y="445" width="30" height="30" as="geometry" />
        </mxCell>
        <mxCell id="_Qq6Ds8lGITZYVWs67cJ-20" value="xp, xppl" style="text;html=1;align=center;verticalAlign=middle;resizable=0;points=[];autosize=1;strokeColor=none;fillColor=none;" parent="1" vertex="1">
          <mxGeometry x="500" y="365" width="60" height="30" as="geometry" />
        </mxCell>
        <mxCell id="_Qq6Ds8lGITZYVWs67cJ-21" value="xpp" style="text;html=1;align=center;verticalAlign=middle;resizable=0;points=[];autosize=1;strokeColor=none;fillColor=none;" parent="1" vertex="1">
          <mxGeometry x="560" y="285" width="40" height="30" as="geometry" />
        </mxCell>
        <mxCell id="_Qq6Ds8lGITZYVWs67cJ-22" value="xppr" style="text;html=1;align=center;verticalAlign=middle;resizable=0;points=[];autosize=1;strokeColor=none;fillColor=none;" parent="1" vertex="1">
          <mxGeometry x="675" y="365" width="50" height="30" as="geometry" />
        </mxCell>
        <mxCell id="_Qq6Ds8lGITZYVWs67cJ-23" value="调整后" style="shape=singleArrow;whiteSpace=wrap;html=1;arrowWidth=0.4;arrowSize=0.4;" parent="1" vertex="1">
          <mxGeometry x="390" y="350" width="80" height="60" as="geometry" />
        </mxCell>
        <mxCell id="_Qq6Ds8lGITZYVWs67cJ-25" value="&lt;font style=&quot;font-size: 18px;&quot;&gt;情况1&lt;/font&gt;" style="text;html=1;align=center;verticalAlign=middle;resizable=0;points=[];autosize=1;strokeColor=none;fillColor=none;" parent="1" vertex="1">
          <mxGeometry x="55" y="125" width="70" height="40" as="geometry" />
        </mxCell>
        <mxCell id="aPeo5oANlTzVJLYgjjRE-26" value="&lt;font style=&quot;font-size: 18px;&quot;&gt;情况2&lt;/font&gt;" style="text;html=1;align=center;verticalAlign=middle;resizable=0;points=[];autosize=1;strokeColor=none;fillColor=none;" parent="1" vertex="1">
          <mxGeometry x="55" y="360" width="70" height="40" as="geometry" />
        </mxCell>
        <mxCell id="YMe1QGS00ZRNtIKMPGGL-1" value="&lt;font style=&quot;font-size: 18px;&quot;&gt;图1&lt;/font&gt;" style="text;html=1;align=center;verticalAlign=middle;resizable=0;points=[];autosize=1;strokeColor=none;fillColor=none;" parent="1" vertex="1">
          <mxGeometry x="389" y="475" width="50" height="40" as="geometry" />
        </mxCell>
      </root>
    </mxGraphModel>
  </diagram>
</mxfile>
